<svg width="24" height="25" viewBox="0 0 24 25" fill="none" stroke="black" stroke-width="1.5" xmlns="http://www.w3.org/2000/svg">
  <path d="M15.7297 6.74637V6.0398C15.7276 5.33769 15.4481 4.66493 14.9521 4.16847C14.4562 3.67201 13.7841 3.39219 13.0827 3.39014H5.95359C5.60586 3.38967 5.26145 3.45789 4.9401 3.59088C4.61875 3.72388 4.32676 3.91903 4.08088 4.16517C3.83499 4.4113 3.64004 4.70358 3.50718 5.02527C3.37433 5.34695 3.30618 5.69171 3.30664 6.0398V15.3666C3.30618 15.7147 3.37433 16.0594 3.50718 16.3811C3.64004 16.7028 3.83499 16.9951 4.08088 17.2412C4.32676 17.4873 4.61875 17.6825 4.9401 17.8155C5.26145 17.9485 5.60586 18.0167 5.95359 18.0162H8.26526"/>
  <path d="M18.047 6.75244H10.9165C10.2145 6.75244 9.54121 7.0316 9.04481 7.52851C8.54841 8.02541 8.26953 8.69937 8.26953 9.4021V18.7405C8.26953 19.4433 8.54841 20.1172 9.04481 20.6141C9.54121 21.111 10.2145 21.3902 10.9165 21.3902H18.047C18.749 21.3902 19.4223 21.111 19.9187 20.6141C20.4151 20.1172 20.694 19.4433 20.694 18.7405V9.4021C20.694 8.69937 20.4151 8.02541 19.9187 7.52851C19.4223 7.0316 18.749 6.75244 18.047 6.75244Z" />
</svg>
