<svg width="24" height="24" viewBox="0 0 24 24" fill="none" stroke="black" stroke-width="1.5" xmlns="http://www.w3.org/2000/svg">
  <path d="M15.7297 6.35623V5.64966C15.7276 4.94756 15.4481 4.2748 14.9521 3.77833C14.4562 3.28187 13.7841 3.00205 13.0827 3H5.95359C5.60586 2.99954 5.26145 3.06776 4.9401 3.20075C4.61875 3.33374 4.32676 3.5289 4.08088 3.77503C3.83499 4.02117 3.64004 4.31345 3.50718 4.63513C3.37433 4.95681 3.30618 5.30157 3.30664 5.64966V14.9764C3.30618 15.3245 3.37433 15.6693 3.50718 15.991C3.64004 16.3127 3.83499 16.6049 4.08088 16.8511C4.32676 17.0972 4.61875 17.2924 4.9401 17.4254C5.26145 17.5584 5.60586 17.6266 5.95359 17.6261H8.26526" />
  <path d="M18.047 6.3623H10.9165C10.2145 6.3623 9.54121 6.64146 9.04481 7.13837C8.54841 7.63528 8.26953 8.30923 8.26953 9.01196V18.3504C8.26953 19.0531 8.54841 19.7271 9.04481 20.224C9.54121 20.7209 10.2145 21.0001 10.9165 21.0001H18.047C18.749 21.0001 19.4223 20.7209 19.9187 20.224C20.4151 19.7271 20.694 19.0531 20.694 18.3504V9.01196C20.694 8.30923 20.4151 7.63528 19.9187 7.13837C19.4223 6.64146 18.749 6.3623 18.047 6.3623Z" />
</svg>
