<svg width="24" height="25" viewBox="0 0 24 25" fill="none" xmlns="http://www.w3.org/2000/svg">
  <path d="M3 12.3838L2.30769 12.0954C2.23077 12.28 2.23077 12.4877 2.30769 12.6723L3 12.3838ZM21 12.3838L21.6923 12.6723C21.7692 12.4877 21.7692 12.28 21.6923 12.0954L21 12.3838ZM3.69231 12.6723C5.60832 8.07388 8.87911 5.93384 12 5.93384C15.1209 5.93384 18.3917 8.07388 20.3077 12.6723L21.6923 12.0954C19.6083 7.0938 15.8791 4.43384 12 4.43384C8.12089 4.43384 4.39168 7.0938 2.30769 12.0954L3.69231 12.6723ZM2.30769 12.6723C4.39168 17.6739 8.12089 20.3338 12 20.3338C15.8791 20.3338 19.6083 17.6739 21.6923 12.6723L20.3077 12.0954C18.3917 16.6938 15.1209 18.8338 12 18.8338C8.87911 18.8338 5.60832 16.6938 3.69231 12.0954L2.30769 12.6723Z" fill="black"/>
  <path d="M18.7236 18.7371L5.99571 6.00914" stroke="black" stroke-width="1.5" stroke-linecap="round" stroke-linejoin="round"/>
  <path d="M14.8086 14.6365C15.3664 13.9411 15.6464 13.0635 15.5943 12.1735C15.5421 11.2835 15.1617 10.4445 14.5264 9.81894C13.8912 9.19339 13.0465 8.82578 12.1558 8.78729C11.2652 8.74881 10.3919 9.04218 9.70508 9.61061" stroke="black" stroke-width="1.5" stroke-linecap="round" stroke-linejoin="round"/>
</svg>
