<svg width="24" height="24" viewBox="0 0 24 24" fill="none" xmlns="http://www.w3.org/2000/svg">
  <path d="M3 12L2.30769 11.7116C2.23077 11.8962 2.23077 12.1039 2.30769 12.2885L3 12ZM21 12L21.6923 12.2885C21.7692 12.1039 21.7692 11.8962 21.6923 11.7116L21 12ZM3.69231 12.2885C5.60832 7.69009 8.87911 5.55005 12 5.55005C15.1209 5.55005 18.3917 7.69009 20.3077 12.2885L21.6923 11.7116C19.6083 6.71001 15.8791 4.05005 12 4.05005C8.12089 4.05005 4.39168 6.71001 2.30769 11.7116L3.69231 12.2885ZM2.30769 12.2885C4.39168 17.2901 8.12089 19.95 12 19.95C15.8791 19.95 19.6083 17.2901 21.6923 12.2885L20.3077 11.7116C18.3917 16.31 15.1209 18.45 12 18.45C8.87911 18.45 5.60832 16.31 3.69231 11.7116L2.30769 12.2885Z" fill="black"/>
  <circle cx="12.0004" cy="12.0001" r="3.6" stroke="black" stroke-width="1.5" stroke-linecap="round" stroke-linejoin="round"/>
</svg>
