<svg viewBox="0 0 24 24" fill="none"  stroke="currentColor" stroke-width="1.5" xmlns="http://www.w3.org/2000/svg">
  <path d="M18.6192 8.14851C19.0135 8.71911 19.2152 9.40074 19.1949 10.094V18.3017C19.1949 19.0173 18.9106 19.7036 18.4046 20.2097C17.8985 20.7157 17.2122 21 16.4965 21H7.50206C6.78641 21 6.10007 20.7157 5.59404 20.2097C5.088 19.7036 4.80371 19.0173 4.80371 18.3017V5.70938C4.80371 4.99374 5.088 4.3074 5.59404 3.80136C6.10007 3.29533 6.78641 3.01104 7.50206 3.01104H12.4235C13.1202 2.95088 13.8159 3.13799 14.3884 3.53955C15.9537 4.92598 17.3715 6.4705 18.6192 8.14851Z" />
  <path d="M18.9457 9.71246H15.7032C14.9876 9.71246 14.3012 9.42818 13.7952 8.92214C13.2892 8.4161 13.0049 7.72977 13.0049 7.01412V3.59766"/>
</svg>
