<svg width="25" height="25" viewBox="0 0 25 25" fill="none" xmlns="http://www.w3.org/2000/svg">
  <path d="M14.4868 4.6416C15.4583 5.99262 15.9794 7.609 15.9777 9.26604C15.994 11.3544 15.1697 13.3637 13.6861 14.8519C12.2025 16.34 10.1811 17.1853 8.0665 17.2016C7.25213 17.2016 6.44278 17.0756 5.66797 16.828C6.39074 17.848 7.35141 18.6814 8.46886 19.2577C9.58632 19.8339 10.8278 20.1362 12.0884 20.139C13.9886 20.1064 15.816 19.4109 17.247 18.1757C18.678 16.9405 19.6205 15.2451 19.9076 13.3896C20.1948 11.5342 19.8081 9.63819 18.816 8.03719C17.8239 6.43618 16.2904 5.23337 14.4868 4.6416Z" stroke="black" stroke-width="1.5" stroke-linecap="round" stroke-linejoin="round"/>
  <path d="M10.627 4.73657L11.0082 5.5216C11.0383 5.56835 11.0829 5.60395 11.1353 5.62289L11.9739 5.74951C12.0043 5.75347 12.0331 5.76568 12.057 5.78482C12.081 5.80395 12.0992 5.82927 12.1097 5.85801C12.1202 5.88675 12.1225 5.91781 12.1165 5.9478C12.1105 5.97779 12.0963 6.00556 12.0755 6.02807L11.4656 6.66116C11.4375 6.70737 11.4201 6.7593 11.4148 6.81311L11.5673 7.69944C11.5718 7.73114 11.5675 7.76347 11.5547 7.79285C11.5419 7.82222 11.5212 7.84749 11.4949 7.86586C11.4685 7.88422 11.4376 7.89495 11.4056 7.89687C11.3735 7.89878 11.3415 7.8918 11.3132 7.8767L10.5762 7.47152C10.5527 7.45905 10.5266 7.45253 10.5 7.45253C10.4734 7.45253 10.4472 7.45905 10.4237 7.47152L9.68676 7.8767C9.65874 7.8943 9.62612 7.90327 9.593 7.90247C9.55988 7.90167 9.52773 7.89114 9.50059 7.87221C9.47345 7.85328 9.45252 7.82679 9.44043 7.79605C9.42835 7.76531 9.42563 7.7317 9.43264 7.69944L9.58511 6.81311C9.58853 6.78561 9.58574 6.75769 9.57695 6.73141C9.56815 6.70512 9.55358 6.68112 9.53429 6.66116L8.92439 6.02807C8.90089 6.00665 8.88429 5.97877 8.8767 5.94795C8.86912 5.91713 8.87088 5.88475 8.88176 5.85493C8.89264 5.82511 8.91216 5.79917 8.93784 5.7804C8.96353 5.76164 8.99422 5.75089 9.02604 5.74951L9.86465 5.62289C9.89268 5.61804 9.91902 5.60622 9.94124 5.58851C9.96345 5.5708 9.98081 5.54778 9.99171 5.5216L10.3221 4.73657C10.336 4.70809 10.3577 4.68409 10.3846 4.6673C10.4116 4.6505 10.4428 4.6416 10.4746 4.6416C10.5063 4.6416 10.5375 4.6505 10.5645 4.6673C10.5914 4.68409 10.6131 4.70809 10.627 4.73657Z" fill="black"/>
  <path d="M6.77351 8.89745L7.1547 9.68249C7.18475 9.72924 7.2294 9.76483 7.28176 9.78378L8.12038 9.9104C8.15081 9.91436 8.17957 9.92657 8.20351 9.9457C8.22745 9.96484 8.24566 9.99016 8.25615 10.0189C8.26664 10.0476 8.269 10.0787 8.26299 10.1087C8.25697 10.1387 8.2428 10.1664 8.22203 10.189L7.61213 10.8221C7.58395 10.8683 7.56658 10.9202 7.5613 10.974L7.71378 11.8603C7.71832 11.892 7.71395 11.9244 7.70117 11.9537C7.68838 11.9831 7.66768 12.0084 7.64136 12.0267C7.61503 12.0451 7.58412 12.0558 7.55204 12.0578C7.51997 12.0597 7.48799 12.0527 7.45965 12.0376L6.72269 11.6324C6.69922 11.6199 6.67304 11.6134 6.64645 11.6134C6.61986 11.6134 6.59368 11.6199 6.57021 11.6324L5.83325 12.0376C5.80522 12.0552 5.7726 12.0642 5.73948 12.0634C5.70636 12.0626 5.67422 12.052 5.64708 12.0331C5.61994 12.0142 5.59901 11.9877 5.58692 11.9569C5.57483 11.9262 5.57212 11.8926 5.57912 11.8603L5.7316 10.974C5.73501 10.9465 5.73222 10.9186 5.72343 10.8923C5.71464 10.866 5.70006 10.842 5.68077 10.8221L5.07087 10.189C5.04737 10.1675 5.03078 10.1397 5.02319 10.1088C5.0156 10.078 5.01736 10.0456 5.02824 10.0158C5.03913 9.98599 5.05865 9.96006 5.08433 9.94129C5.11001 9.92253 5.1407 9.91178 5.17252 9.9104L6.01113 9.78378C6.03916 9.77893 6.06551 9.7671 6.08772 9.7494C6.10993 9.73169 6.1273 9.70867 6.1382 9.68249L6.46856 8.89745C6.48249 8.86898 6.50417 8.84497 6.53113 8.82818C6.55809 8.81139 6.58924 8.80249 6.62104 8.80249C6.65283 8.80249 6.68398 8.81139 6.71094 8.82818C6.7379 8.84497 6.75958 8.86898 6.77351 8.89745Z" fill="black"/>
  <path d="M11.4276 10.6306L11.7037 11.1993C11.7255 11.2331 11.7578 11.2589 11.7958 11.2726L12.4033 11.3644C12.4253 11.3672 12.4462 11.3761 12.4635 11.3899C12.4808 11.4038 12.494 11.4221 12.5016 11.443C12.5092 11.4638 12.5109 11.4863 12.5066 11.508C12.5022 11.5297 12.492 11.5498 12.4769 11.5662L12.0351 12.0248C12.0147 12.0583 12.0021 12.0959 11.9983 12.1349L12.1087 12.7769C12.112 12.7999 12.1089 12.8233 12.0996 12.8446C12.0903 12.8659 12.0753 12.8842 12.0563 12.8975C12.0372 12.9108 12.0148 12.9186 11.9916 12.92C11.9683 12.9213 11.9452 12.9163 11.9246 12.9053L11.3908 12.6118C11.3738 12.6028 11.3548 12.5981 11.3355 12.5981C11.3163 12.5981 11.2973 12.6028 11.2803 12.6118L10.7464 12.9053C10.7261 12.9181 10.7025 12.9246 10.6785 12.924C10.6545 12.9234 10.6312 12.9158 10.6116 12.9021C10.5919 12.8884 10.5767 12.8692 10.568 12.8469C10.5592 12.8247 10.5573 12.8003 10.5623 12.7769L10.6728 12.1349C10.6753 12.1149 10.6732 12.0947 10.6669 12.0757C10.6605 12.0566 10.6499 12.0392 10.636 12.0248L10.1941 11.5662C10.1771 11.5506 10.1651 11.5304 10.1596 11.5081C10.1541 11.4858 10.1554 11.4623 10.1633 11.4407C10.1712 11.4191 10.1853 11.4003 10.2039 11.3867C10.2225 11.3731 10.2447 11.3654 10.2678 11.3644L10.8753 11.2726C10.8956 11.2691 10.9147 11.2606 10.9308 11.2477C10.9469 11.2349 10.9594 11.2182 10.9673 11.1993L11.2067 10.6306C11.2168 10.6099 11.2325 10.5925 11.252 10.5804C11.2715 10.5682 11.2941 10.5618 11.3171 10.5618C11.3402 10.5618 11.3627 10.5682 11.3823 10.5804C11.4018 10.5925 11.4175 10.6099 11.4276 10.6306Z" fill="black"/>
</svg>
