<svg width="25" height="25" viewBox="0 0 25 25" fill="none" stroke="black" stroke-width="1.5" stroke-linecap="round" stroke-linejoin="round" xmlns="http://www.w3.org/2000/svg">
  <path d="M12.0205 21.3838C16.9911 21.3838 21.0205 17.3544 21.0205 12.3838C21.0205 7.41323 16.9911 3.38379 12.0205 3.38379C7.04995 3.38379 3.02051 7.41323 3.02051 12.3838C3.02051 17.3544 7.04995 21.3838 12.0205 21.3838Z" />
  <ellipse cx="11.8406" cy="16.5822" rx="0.85035" ry="0.841486" fill="black" stroke="none" />
  <path d="M11.9468 13.6048C11.9356 12.5306 12.6145 12.0505 13.1914 11.6327C13.6354 11.3112 14.2559 10.8573 14.3008 9.83628C14.3011 9.3974 14.2252 9.08953 14.0114 8.68629C13.9048 8.51097 13.6358 8.18106 13.3701 8.0141C12.8779 7.63717 12.0917 7.45899 11.3018 7.62759C9.90647 7.92537 9.55307 8.96427 9.55377 9.54531"/>
</svg>
