<svg viewBox="0 0 24 24" fill="none" stroke-width="1.5" stroke-linecap="round" stroke-linejoin="round" stroke="currentColor" xmlns="http://www.w3.org/2000/svg">
  <path d="M12 21C16.9706 21 21 16.9706 21 12C21 7.02944 16.9706 3 12 3C7.02944 3 3 7.02944 3 12C3 16.9706 7.02944 21 12 21Z"  />
  <ellipse cx="11.8201" cy="16.1984" rx="0.85035" ry="0.841486" fill="currentColor" stroke="none"/>
  <path d="M11.9263 13.221C11.9151 12.1468 12.594 11.6667 13.1709 11.2489C13.6149 10.9274 14.2354 10.4735 14.2802 9.45249C14.2806 9.01362 14.2047 8.70574 13.9909 8.3025C13.8843 8.12718 13.6153 7.79727 13.3496 7.63031C12.8574 7.25339 12.0712 7.0752 11.2813 7.2438C9.88596 7.54158 9.53256 8.58048 9.53326 9.16152" />
</svg>
