<svg width="25" height="25" viewBox="0 0 25 25" fill="none" stroke="black" stroke-width="1.5" stroke-linecap="round" stroke-linejoin="round" xmlns="http://www.w3.org/2000/svg">
  <path d="M12.084 9.73022L12.084 15.0191"/>
  <ellipse cx="12.0841" cy="17.2469" rx="0.760833" ry="0.760833" fill="black" stroke="none"/>
  <path d="M11.7203 4.7553L3.15382 19.6886C3.12077 19.7451 3.10491 19.808 3.10774 19.8713C3.11058 19.9347 3.132 19.9963 3.17001 20.0505C3.20801 20.1047 3.26134 20.1496 3.32498 20.1811C3.38862 20.2125 3.46048 20.2295 3.53378 20.2303H20.681C20.7543 20.2295 20.8262 20.2125 20.8899 20.181C20.9535 20.1495 21.0068 20.1046 21.0449 20.0504C21.0829 19.9962 21.1043 19.9345 21.1071 19.8711C21.1099 19.8078 21.094 19.7449 21.061 19.6883L12.4794 4.75505C12.4447 4.69362 12.3907 4.64185 12.3235 4.60565C12.2564 4.56945 12.1789 4.55027 12.0998 4.55029C12.0207 4.55032 11.9432 4.56955 11.8761 4.60579C11.809 4.64204 11.755 4.69384 11.7203 4.7553Z"/>
</svg>
