<svg viewBox="0 0 24 24" fill="none" xmlns="http://www.w3.org/2000/svg">
  <path d="M11.9766 9.34009L11.9766 14.6289" stroke="currentColor" stroke-width="1.5" stroke-linecap="round" stroke-linejoin="round"/>
  <ellipse cx="11.9767" cy="16.8568" rx="0.760833" ry="0.760833" fill="currentColor"/>
  <path d="M11.6129 4.36516L3.0464 19.2984C3.01335 19.355 2.99749 19.4179 3.00032 19.4812C3.00316 19.5445 3.02458 19.6062 3.06259 19.6604C3.10059 19.7145 3.15392 19.7595 3.21756 19.7909C3.2812 19.8224 3.35305 19.8393 3.42636 19.8402H20.5736C20.6469 19.8393 20.7188 19.8224 20.7824 19.7909C20.8461 19.7594 20.8994 19.7144 20.9374 19.6602C20.9754 19.606 20.9969 19.5443 20.9997 19.481C21.0025 19.4177 20.9866 19.3548 20.9535 19.2982L12.372 4.36492C12.3372 4.30348 12.2832 4.25171 12.2161 4.21551C12.149 4.17931 12.0715 4.16013 11.9924 4.16016C11.9132 4.16018 11.8357 4.17941 11.7687 4.21566C11.7016 4.2519 11.6476 4.3037 11.6129 4.36516Z" stroke="currentColor" stroke-width="1.5" stroke-linecap="round" stroke-linejoin="round"/>
</svg>
